<mxfile host="app.diagrams.net" agent="Mozilla/5.0 (Windows NT 10.0; Win64; x64) AppleWebKit/537.36 (KHTML, like Gecko) Chrome/136.0.0.0 Safari/537.36" version="27.0.3">
  <diagram name="Page-1" id="MK6d8y-G4h0hkD9kcIO6">
    <mxGraphModel dx="1163" dy="575" grid="1" gridSize="10" guides="1" tooltips="1" connect="1" arrows="1" fold="1" page="1" pageScale="1" pageWidth="827" pageHeight="1169" math="0" shadow="0">
      <root>
        <mxCell id="0" />
        <mxCell id="1" parent="0" />
        <mxCell id="yu3238OFJM-tGYZaCiX_-7" value="" style="html=1;whiteSpace=wrap;" vertex="1" parent="1">
          <mxGeometry x="160" y="120" width="520" height="360" as="geometry" />
        </mxCell>
        <mxCell id="yu3238OFJM-tGYZaCiX_-1" value="Admin" style="shape=umlActor;verticalLabelPosition=bottom;verticalAlign=top;html=1;" vertex="1" parent="1">
          <mxGeometry x="100" y="190" width="30" height="60" as="geometry" />
        </mxCell>
        <mxCell id="yu3238OFJM-tGYZaCiX_-2" value="Use Case Level 0" style="shape=umlFrame;whiteSpace=wrap;html=1;pointerEvents=0;" vertex="1" parent="1">
          <mxGeometry x="40" y="50" width="760" height="550" as="geometry" />
        </mxCell>
        <mxCell id="yu3238OFJM-tGYZaCiX_-5" value="Mahasiswa" style="shape=umlActor;verticalLabelPosition=bottom;verticalAlign=top;html=1;" vertex="1" parent="1">
          <mxGeometry x="740" y="190" width="30" height="60" as="geometry" />
        </mxCell>
        <mxCell id="yu3238OFJM-tGYZaCiX_-22" value="" style="edgeStyle=orthogonalEdgeStyle;rounded=0;orthogonalLoop=1;jettySize=auto;html=1;" edge="1" parent="1" source="yu3238OFJM-tGYZaCiX_-6" target="yu3238OFJM-tGYZaCiX_-8">
          <mxGeometry relative="1" as="geometry" />
        </mxCell>
        <mxCell id="yu3238OFJM-tGYZaCiX_-23" style="edgeStyle=orthogonalEdgeStyle;rounded=0;orthogonalLoop=1;jettySize=auto;html=1;" edge="1" parent="1" source="yu3238OFJM-tGYZaCiX_-6" target="yu3238OFJM-tGYZaCiX_-12">
          <mxGeometry relative="1" as="geometry">
            <Array as="points">
              <mxPoint x="340" y="530" />
              <mxPoint x="340" y="205" />
            </Array>
          </mxGeometry>
        </mxCell>
        <mxCell id="yu3238OFJM-tGYZaCiX_-24" style="edgeStyle=orthogonalEdgeStyle;rounded=0;orthogonalLoop=1;jettySize=auto;html=1;" edge="1" parent="1" source="yu3238OFJM-tGYZaCiX_-6" target="yu3238OFJM-tGYZaCiX_-9">
          <mxGeometry relative="1" as="geometry" />
        </mxCell>
        <mxCell id="yu3238OFJM-tGYZaCiX_-6" value="Superadmin" style="shape=umlActor;verticalLabelPosition=bottom;verticalAlign=top;html=1;" vertex="1" parent="1">
          <mxGeometry x="405" y="500" width="30" height="60" as="geometry" />
        </mxCell>
        <mxCell id="yu3238OFJM-tGYZaCiX_-14" value="" style="edgeStyle=orthogonalEdgeStyle;rounded=0;orthogonalLoop=1;jettySize=auto;html=1;" edge="1" parent="1" source="yu3238OFJM-tGYZaCiX_-8" target="yu3238OFJM-tGYZaCiX_-10">
          <mxGeometry relative="1" as="geometry" />
        </mxCell>
        <mxCell id="yu3238OFJM-tGYZaCiX_-8" value="Manage &lt;i&gt;Signature&lt;/i&gt;" style="ellipse;whiteSpace=wrap;html=1;" vertex="1" parent="1">
          <mxGeometry x="350" y="390" width="140" height="70" as="geometry" />
        </mxCell>
        <mxCell id="yu3238OFJM-tGYZaCiX_-9" value="Manage &lt;i&gt;Survey&lt;/i&gt;" style="ellipse;whiteSpace=wrap;html=1;" vertex="1" parent="1">
          <mxGeometry x="180" y="200" width="140" height="70" as="geometry" />
        </mxCell>
        <mxCell id="yu3238OFJM-tGYZaCiX_-10" value="Login" style="ellipse;whiteSpace=wrap;html=1;" vertex="1" parent="1">
          <mxGeometry x="350" y="260" width="140" height="70" as="geometry" />
        </mxCell>
        <mxCell id="yu3238OFJM-tGYZaCiX_-11" value="Mengisi Survei" style="ellipse;whiteSpace=wrap;html=1;" vertex="1" parent="1">
          <mxGeometry x="520" y="200" width="140" height="70" as="geometry" />
        </mxCell>
        <mxCell id="yu3238OFJM-tGYZaCiX_-12" value="Melihat halaman verifikasi surat" style="ellipse;whiteSpace=wrap;html=1;" vertex="1" parent="1">
          <mxGeometry x="350" y="170" width="140" height="70" as="geometry" />
        </mxCell>
        <mxCell id="yu3238OFJM-tGYZaCiX_-16" value="" style="edgeStyle=orthogonalEdgeStyle;rounded=0;orthogonalLoop=1;jettySize=auto;html=1;" edge="1" parent="1" source="yu3238OFJM-tGYZaCiX_-5" target="yu3238OFJM-tGYZaCiX_-11">
          <mxGeometry relative="1" as="geometry">
            <Array as="points">
              <mxPoint x="720" y="235" />
              <mxPoint x="720" y="235" />
            </Array>
          </mxGeometry>
        </mxCell>
        <mxCell id="yu3238OFJM-tGYZaCiX_-15" style="edgeStyle=orthogonalEdgeStyle;rounded=0;orthogonalLoop=1;jettySize=auto;html=1;entryX=1;entryY=0.5;entryDx=0;entryDy=0;" edge="1" parent="1" source="yu3238OFJM-tGYZaCiX_-5" target="yu3238OFJM-tGYZaCiX_-10">
          <mxGeometry relative="1" as="geometry">
            <Array as="points">
              <mxPoint x="755" y="295" />
            </Array>
          </mxGeometry>
        </mxCell>
        <mxCell id="yu3238OFJM-tGYZaCiX_-17" style="edgeStyle=orthogonalEdgeStyle;rounded=0;orthogonalLoop=1;jettySize=auto;html=1;entryX=0;entryY=0.5;entryDx=0;entryDy=0;" edge="1" parent="1" source="yu3238OFJM-tGYZaCiX_-1" target="yu3238OFJM-tGYZaCiX_-10">
          <mxGeometry relative="1" as="geometry">
            <Array as="points">
              <mxPoint x="115" y="295" />
            </Array>
          </mxGeometry>
        </mxCell>
        <mxCell id="yu3238OFJM-tGYZaCiX_-18" style="edgeStyle=orthogonalEdgeStyle;rounded=0;orthogonalLoop=1;jettySize=auto;html=1;entryX=0;entryY=0.5;entryDx=0;entryDy=0;" edge="1" parent="1" source="yu3238OFJM-tGYZaCiX_-1" target="yu3238OFJM-tGYZaCiX_-9">
          <mxGeometry relative="1" as="geometry">
            <Array as="points">
              <mxPoint x="140" y="235" />
              <mxPoint x="140" y="235" />
            </Array>
          </mxGeometry>
        </mxCell>
        <mxCell id="yu3238OFJM-tGYZaCiX_-19" style="edgeStyle=orthogonalEdgeStyle;rounded=0;orthogonalLoop=1;jettySize=auto;html=1;" edge="1" parent="1" source="yu3238OFJM-tGYZaCiX_-1" target="yu3238OFJM-tGYZaCiX_-12">
          <mxGeometry relative="1" as="geometry">
            <Array as="points">
              <mxPoint x="115" y="160" />
              <mxPoint x="420" y="160" />
            </Array>
          </mxGeometry>
        </mxCell>
        <mxCell id="yu3238OFJM-tGYZaCiX_-21" style="edgeStyle=orthogonalEdgeStyle;rounded=0;orthogonalLoop=1;jettySize=auto;html=1;entryX=0.568;entryY=0.02;entryDx=0;entryDy=0;entryPerimeter=0;" edge="1" parent="1" source="yu3238OFJM-tGYZaCiX_-5" target="yu3238OFJM-tGYZaCiX_-12">
          <mxGeometry relative="1" as="geometry">
            <Array as="points">
              <mxPoint x="755" y="160" />
              <mxPoint x="429" y="160" />
            </Array>
          </mxGeometry>
        </mxCell>
      </root>
    </mxGraphModel>
  </diagram>
</mxfile>
